<?xml version="1.0" encoding="UTF-8" standalone="no"?>
<svg
   xmlns:dc="http://purl.org/dc/elements/1.1/"
   xmlns:cc="http://creativecommons.org/ns#"
   xmlns:rdf="http://www.w3.org/1999/02/22-rdf-syntax-ns#"
   xmlns:svg="http://www.w3.org/2000/svg"
   xmlns="http://www.w3.org/2000/svg"
   xmlns:sodipodi="http://sodipodi.sourceforge.net/DTD/sodipodi-0.dtd"
   xmlns:inkscape="http://www.inkscape.org/namespaces/inkscape"
   width="100%"
   height="100%"
   viewBox="0 0 238 38"
   version="1.1"
   xml:space="preserve"
   style="fill-rule:evenodd;clip-rule:evenodd;stroke-linejoin:round;stroke-miterlimit:2;"
   id="svg70"
   sodipodi:docname="logo-with-text-light.svg"
   inkscape:version="1.0.2-2 (e86c870879, 2021-01-15)"><metadata
   id="metadata76"><rdf:RDF><cc:Work
       rdf:about=""><dc:format>image/svg+xml</dc:format><dc:type
         rdf:resource="http://purl.org/dc/dcmitype/StillImage" /></cc:Work></rdf:RDF></metadata><defs
   id="defs74" /><sodipodi:namedview
   pagecolor="#ffffff"
   bordercolor="#666666"
   borderopacity="1"
   objecttolerance="10"
   gridtolerance="10"
   guidetolerance="10"
   inkscape:pageopacity="0"
   inkscape:pageshadow="2"
   inkscape:window-width="1920"
   inkscape:window-height="991"
   id="namedview72"
   showgrid="false"
   inkscape:zoom="3.7802789"
   inkscape:cx="96.932849"
   inkscape:cy="24.526168"
   inkscape:window-x="-9"
   inkscape:window-y="-9"
   inkscape:window-maximized="1"
   inkscape:current-layer="g68"
   inkscape:document-rotation="0" />
    <g
   transform="matrix(1,0,0,1,-3066.91,-1409.76)"
   id="g68">
        <g
   transform="matrix(1,0,0,1,2050,1363.33)"
   id="g6"
   style="fill:#e3bf2b;fill-opacity:1">
            <g
   transform="matrix(0.28893,0,0,0.28893,1004.73,-186.295)"
   id="g4"
   style="fill:#e3bf2b;fill-opacity:1">
                <path
   d="M261.181,829.723C257.531,829.723 254.497,828.564 252.08,826.245C249.663,823.927 248.454,821.041 248.454,817.588C248.454,814.136 249.663,811.25 252.08,808.932C254.497,806.613 257.531,805.454 261.181,805.454C264.831,805.454 267.865,806.613 270.282,808.932C272.699,811.25 273.907,814.136 273.907,817.588C273.907,821.041 272.699,823.927 270.282,826.245C267.865,828.564 264.831,829.723 261.181,829.723ZM271.391,839.49L271.391,921.471L250.674,921.471L250.674,839.49L271.391,839.49Z"
   style="fill:#e3bf2b;fill-rule:nonzero;fill-opacity:1"
   id="path2" />
            </g>
        </g>
        <g
   transform="matrix(1,0,0,1,2050,1363.33)"
   id="g12"
   style="fill:#e3bf2b;fill-opacity:1">
            <g
   transform="matrix(0.28893,0,0,0.28893,1004.73,-186.295)"
   id="g10"
   style="fill:#e3bf2b;fill-opacity:1">
                <path
   d="M337.243,838.306C347.01,838.306 354.902,841.389 360.92,847.555C366.938,853.72 369.947,862.328 369.947,873.377L369.947,921.471L349.229,921.471L349.229,876.189C349.229,869.678 347.602,864.671 344.346,861.169C341.091,857.667 336.651,855.915 331.028,855.915C325.306,855.915 320.792,857.667 317.488,861.169C314.183,864.671 312.53,869.678 312.53,876.189L312.53,921.471L291.813,921.471L291.813,839.49L312.53,839.49L312.53,849.7C315.292,846.149 318.819,843.362 323.111,841.339C327.402,839.317 332.113,838.306 337.243,838.306Z"
   style="fill:#e3bf2b;fill-rule:nonzero;fill-opacity:1"
   id="path8" />
            </g>
        </g>
        <g
   transform="matrix(1,0,0,1,2050,1363.33)"
   id="g18"
   style="fill:#e3bf2b;fill-opacity:1">
            <g
   transform="matrix(0.28893,0,0,0.28893,1004.73,-186.295)"
   id="g16"
   style="fill:#e3bf2b;fill-opacity:1">
                <path
   d="M423.812,902.381L444.529,839.49L466.578,839.49L436.242,921.471L411.085,921.471L380.897,839.49L403.095,839.49L423.812,902.381Z"
   style="fill:#e3bf2b;fill-rule:nonzero;fill-opacity:1"
   id="path14" />
            </g>
        </g>
        <g
   transform="matrix(1,0,0,1,2050,1363.33)"
   id="g24"
   style="fill:#e3bf2b;fill-opacity:1">
            <g
   transform="matrix(0.28893,0,0,0.28893,1004.73,-186.295)"
   id="g22"
   style="fill:#e3bf2b;fill-opacity:1">
                <path
   d="M488.775,829.723C485.125,829.723 482.092,828.564 479.675,826.245C477.258,823.927 476.049,821.041 476.049,817.588C476.049,814.136 477.258,811.25 479.675,808.932C482.092,806.613 485.125,805.454 488.775,805.454C492.426,805.454 495.459,806.613 497.876,808.932C500.293,811.25 501.502,814.136 501.502,817.588C501.502,821.041 500.293,823.927 497.876,826.245C495.459,828.564 492.426,829.723 488.775,829.723ZM498.986,839.49L498.986,921.471L478.269,921.471L478.269,839.49L498.986,839.49Z"
   style="fill:#e3bf2b;fill-rule:nonzero;fill-opacity:1"
   id="path20" />
            </g>
        </g>
        <g
   transform="matrix(1,0,0,1,2050,1363.33)"
   id="g30"
   style="fill:#e3bf2b;fill-opacity:1">
            <g
   transform="matrix(0.28893,0,0,0.28893,1004.73,-186.295)"
   id="g28"
   style="fill:#e3bf2b;fill-opacity:1">
                <path
   d="M543.528,856.507L543.528,896.166C543.528,898.929 544.194,900.926 545.526,902.16C546.858,903.393 549.102,904.009 552.259,904.009L561.878,904.009L561.878,921.471L548.856,921.471C531.394,921.471 522.663,912.987 522.663,896.018L522.663,856.507L512.896,856.507L512.896,839.49L522.663,839.49L522.663,819.216L543.528,819.216L543.528,839.49L561.878,839.49L561.878,856.507L543.528,856.507Z"
   style="fill:#e3bf2b;fill-rule:nonzero;fill-opacity:1"
   id="path26" />
            </g>
        </g>
        <g
   transform="matrix(1,0,0,1,2050,1363.33)"
   id="g36"
   style="fill:#e3bf2b;fill-opacity:1">
            <g
   transform="matrix(0.28893,0,0,0.28893,1004.73,-186.295)"
   id="g34"
   style="fill:#e3bf2b;fill-opacity:1">
                <path
   d="M608.196,922.803C601.488,922.803 595.47,921.594 590.142,919.177C584.815,916.76 580.598,913.48 577.49,909.337C574.382,905.193 572.681,900.606 572.385,895.574L593.25,895.574C593.645,898.731 595.198,901.346 597.911,903.417C600.624,905.489 604.003,906.525 608.048,906.525C611.994,906.525 615.077,905.736 617.297,904.157C619.517,902.579 620.626,900.556 620.626,898.09C620.626,895.426 619.27,893.429 616.557,892.097C613.844,890.765 609.528,889.31 603.609,887.731C597.492,886.252 592.485,884.722 588.589,883.144C584.692,881.566 581.338,879.148 578.526,875.893C575.714,872.637 574.308,868.247 574.308,862.723C574.308,858.185 575.616,854.041 578.23,850.292C580.844,846.543 584.593,843.584 589.476,841.413C594.36,839.243 600.106,838.158 606.716,838.158C616.483,838.158 624.277,840.599 630.097,845.483C635.918,850.366 639.124,856.951 639.716,865.238L619.887,865.238C619.591,861.983 618.234,859.393 615.817,857.469C613.4,855.546 610.169,854.584 606.124,854.584C602.375,854.584 599.49,855.274 597.467,856.655C595.445,858.037 594.434,859.96 594.434,862.427C594.434,865.189 595.815,867.285 598.577,868.716C601.34,870.146 605.631,871.601 611.452,873.081C617.371,874.561 622.254,876.09 626.102,877.669C629.949,879.247 633.279,881.689 636.09,884.994C638.902,888.299 640.357,892.664 640.456,898.09C640.456,902.825 639.149,907.068 636.534,910.816C633.92,914.565 630.171,917.5 625.288,919.621C620.404,921.742 614.707,922.803 608.196,922.803Z"
   style="fill:#e3bf2b;fill-rule:nonzero;fill-opacity:1"
   id="path32" />
            </g>
        </g>
        <g
   transform="matrix(1,0,0,1,2050,1363.33)"
   id="g42"
   style="fill:#e3bf2b;fill-opacity:1">
            <g
   transform="matrix(0.28893,0,0,0.28893,1004.73,-186.295)"
   id="g40"
   style="fill:#e3bf2b;fill-opacity:1">
                <path
   d="M666.649,922.507C662.9,922.507 659.817,921.348 657.4,919.029C654.983,916.711 653.774,913.825 653.774,910.372C653.774,906.92 654.983,904.034 657.4,901.716C659.817,899.397 662.9,898.238 666.649,898.238C670.299,898.238 673.308,899.397 675.675,901.716C678.043,904.034 679.227,906.92 679.227,910.372C679.227,913.825 678.043,916.711 675.675,919.029C673.308,921.348 670.299,922.507 666.649,922.507Z"
   style="fill:#e3bf2b;fill-rule:nonzero;fill-opacity:1"
   id="path38" />
            </g>
        </g>
        <g
   transform="matrix(1,0,0,1,2050,1363.33)"
   id="g48"
   style="fill:#e3bf2b;fill-opacity:1">
            <g
   transform="matrix(0.28893,0,0,0.28893,1004.73,-186.295)"
   id="g46"
   style="fill:#e3bf2b;fill-opacity:1">
                <path
   d="M690.621,880.48C690.621,871.996 692.348,864.572 695.801,858.209C699.254,851.846 704.038,846.913 710.155,843.411C716.271,839.909 723.276,838.158 731.168,838.158C741.33,838.158 749.74,840.698 756.399,845.779C763.058,850.859 767.522,857.987 769.791,867.162L747.446,867.162C746.262,863.61 744.265,860.824 741.453,858.801C738.641,856.779 735.164,855.768 731.02,855.768C725.101,855.768 720.415,857.913 716.962,862.205C713.509,866.496 711.783,872.588 711.783,880.48C711.783,888.274 713.509,894.317 716.962,898.608C720.415,902.899 725.101,905.045 731.02,905.045C739.406,905.045 744.881,901.296 747.446,893.799L769.791,893.799C767.522,902.677 763.033,909.731 756.325,914.96C749.616,920.189 741.231,922.803 731.168,922.803C723.276,922.803 716.271,921.052 710.155,917.55C704.038,914.047 699.254,909.115 695.801,902.751C692.348,896.388 690.621,888.965 690.621,880.48Z"
   style="fill:#e3bf2b;fill-rule:nonzero;fill-opacity:1"
   id="path44" />
            </g>
        </g>
        <g
   transform="matrix(1,0,0,1,2050,1363.33)"
   id="g54"
   style="fill:#e3bf2b;fill-opacity:1">
            <g
   transform="matrix(0.28893,0,0,0.28893,1004.73,-186.295)"
   id="g52"
   style="fill:#e3bf2b;fill-opacity:1">
                <path
   d="M821.437,922.803C813.544,922.803 806.441,921.052 800.127,917.55C793.813,914.047 788.856,909.09 785.255,902.677C781.654,896.265 779.854,888.866 779.854,880.48C779.854,872.095 781.704,864.696 785.403,858.283C789.103,851.871 794.159,846.913 800.571,843.411C806.984,839.909 814.136,838.158 822.028,838.158C829.921,838.158 837.073,839.909 843.486,843.411C849.898,846.913 854.954,851.871 858.654,858.283C862.353,864.696 864.203,872.095 864.203,880.48C864.203,888.866 862.304,896.265 858.506,902.677C854.708,909.09 849.578,914.047 843.116,917.55C836.654,921.052 829.428,922.803 821.437,922.803ZM821.437,904.749C825.185,904.749 828.712,903.837 832.017,902.012C835.322,900.186 837.961,897.449 839.934,893.799C841.907,890.148 842.894,885.709 842.894,880.48C842.894,872.687 840.847,866.693 836.753,862.501C832.658,858.308 827.652,856.211 821.733,856.211C815.813,856.211 810.856,858.308 806.86,862.501C802.865,866.693 800.867,872.687 800.867,880.48C800.867,888.274 802.816,894.267 806.712,898.46C810.609,902.653 815.517,904.749 821.437,904.749Z"
   style="fill:#e3bf2b;fill-rule:nonzero;fill-opacity:1"
   id="path50" />
            </g>
        </g>
        <g
   transform="matrix(1,0,0,1,2050,1363.33)"
   id="g60"
   style="fill:#e3bf2b;fill-opacity:1">
            <g
   transform="matrix(0.168364,0,0,0.168364,902.502,20.8526)"
   id="g58"
   style="fill:#e3bf2b;fill-opacity:1">
                <circle
   cx="825.677"
   cy="345.527"
   r="26.589"
   style="fill:#e3bf2b;fill-opacity:1"
   id="circle56" />
            </g>
        </g>
        <g
   transform="matrix(1,0,0,1,2050,1363.33)"
   id="g66"
   style="fill:#e3bf2b;fill-opacity:1">
            <g
   transform="matrix(0.380833,0,0,0.380833,681.185,-88.848)"
   id="g64"
   style="fill:#e3bf2b;fill-opacity:1">
                <path
   d="M970.985,411.304L988.51,393.779C992.487,389.802 992.487,383.353 988.51,379.375C988.51,379.375 988.51,379.375 988.509,379.375C984.532,375.397 978.083,375.397 974.105,379.375L963.6,389.88L952.218,378.499L963.584,367.133C968.512,362.204 975.197,359.435 982.168,359.435C989.138,359.435 995.823,362.204 1000.75,367.133C1000.75,367.133 1000.75,367.133 1000.75,367.133C1011.01,377.397 1011.01,394.037 1000.75,404.301L971.171,434.279L915.895,379.375C911.917,375.397 905.468,375.397 901.491,379.375C901.49,379.375 901.49,379.375 901.49,379.375C897.513,383.353 897.513,389.802 901.49,393.779L919.015,411.304L926.239,404.08L937.633,415.475L918.829,434.279L889.249,404.301C878.985,394.037 878.985,377.397 889.249,367.133C889.249,367.133 889.249,367.133 889.249,367.133C894.177,362.204 900.862,359.435 907.832,359.435C914.803,359.435 921.488,362.204 926.416,367.133L970.985,411.304Z"
   style="fill:#e3bf2b;fill-opacity:1"
   id="path62" />
            </g>
        </g>
    </g>
</svg>
