<svg width="402" height="283" viewBox="0 0 402 283" fill="none" xmlns="http://www.w3.org/2000/svg">
<g clip-path="url(#clip0_637_20776)">
<path d="M205.309 282.4C217.4 282.4 227.202 272.609 227.202 260.531C227.202 248.453 217.4 238.661 205.309 238.661C193.219 238.661 183.417 248.453 183.417 260.531C183.417 272.609 193.219 282.4 205.309 282.4Z" fill="#692BE2"/>
<path d="M336.096 281.172C348.344 277.497 361.364 273.666 371.078 264.931C379.757 257.125 385.617 245.206 382.021 233.5C378.433 221.818 367.685 214.028 356.587 210.154C350.293 207.957 343.709 206.738 337.126 205.78C329.971 204.739 322.784 203.886 315.6 203.065C286.513 199.742 257.316 197.712 228.009 196.975C213.549 196.611 199.091 196.62 184.628 196.83C171.712 197.017 158.109 197.012 146.126 191.528C136.809 187.264 128.352 179.505 125.755 169.31C122.758 157.541 128.286 145.556 136.216 137.033C140.396 132.54 145.281 128.759 150.321 125.282C155.788 121.51 161.445 118.005 167.226 114.733C178.61 108.292 190.513 102.811 202.809 98.3459C208.875 96.1426 215.031 94.2417 221.24 92.4881C226.483 91.0073 231.743 89.5244 236.81 87.5069C246.607 83.6066 255.924 77.0001 258.415 66.1693C260.775 55.9042 256.795 44.7607 249.817 37.135C241.744 28.3126 229.572 24.4452 217.902 23.8194C204.8 23.1169 192.001 26.3924 179.687 30.5494C166.553 34.9832 153.702 40.0813 140.291 43.6726C126.992 47.2303 113.435 49.7477 99.7442 51.2016C93.0421 51.9145 86.1375 52.7195 79.3955 52.1737C73.7452 51.7163 68.1237 50.0563 63.9594 46.0505C60.3888 42.6157 58.2618 37.8951 58.993 32.9135C59.1259 32.0086 60.5018 32.3933 60.3698 33.2926C59.4796 39.3567 63.606 44.9445 68.6909 47.8069C74.5677 51.115 81.7189 51.1195 88.2617 50.7412C102.448 49.8853 116.539 47.8504 130.388 44.6579C143.996 41.5531 157.117 37.1147 170.224 32.3734C182.673 27.8705 195.399 23.4756 208.698 22.5002C220.237 21.6539 232.376 23.3333 242.429 29.3573C251.264 34.6516 257.76 43.4807 259.83 53.6124C261.853 63.5129 259.052 73.4779 251.549 80.3868C243.782 87.5401 233.131 90.5984 223.205 93.4151C210.616 96.9875 198.297 101.164 186.372 106.586C174.286 112.066 162.694 118.576 151.725 126.044C141.138 133.271 130.689 142.365 127.34 155.259C125.781 161.265 126.069 167.635 128.679 173.308C130.999 178.352 134.821 182.595 139.273 185.868C149.896 193.677 163.285 195.28 176.117 195.439C190.528 195.618 204.94 195.133 219.357 195.369C248.736 195.851 278.056 197.637 307.316 200.728C314.648 201.503 321.97 202.36 329.283 203.299C335.861 204.143 342.461 204.982 348.929 206.482C360.428 209.148 371.618 214.275 378.765 224.014C381.937 228.236 383.902 233.239 384.451 238.489C384.951 243.968 383.609 249.457 381.129 254.33C375.64 265.118 365.36 271.979 354.442 276.487C348.595 278.902 342.529 280.731 336.476 282.547C335.594 282.812 335.217 281.435 336.096 281.172Z" fill="#F2F2F2"/>
<path d="M59.9153 44.4519C66.2236 44.4519 71.3374 39.3435 71.3374 33.0418C71.3374 26.7402 66.2236 21.6317 59.9153 21.6317C53.607 21.6317 48.4932 26.7402 48.4932 33.0418C48.4932 39.3435 53.607 44.4519 59.9153 44.4519Z" fill="#F2F2F2"/>
<path d="M139.157 66.0835C145.465 66.0835 150.579 60.975 150.579 54.6734C150.579 48.3718 145.465 43.2633 139.157 43.2633C132.848 43.2633 127.734 48.3718 127.734 54.6734C127.734 60.975 132.848 66.0835 139.157 66.0835Z" fill="#F2F2F2"/>
<path d="M206.261 22.8202C212.569 22.8202 217.683 17.7117 217.683 11.4101C217.683 5.10848 212.569 0 206.261 0C199.953 0 194.839 5.10848 194.839 11.4101C194.839 17.7117 199.953 22.8202 206.261 22.8202Z" fill="#F2F2F2"/>
<path d="M248.143 71.3131C254.451 71.3131 259.565 66.2047 259.565 59.903C259.565 53.6014 254.451 48.4929 248.143 48.4929C241.835 48.4929 236.721 53.6014 236.721 59.903C236.721 66.2047 241.835 71.3131 248.143 71.3131Z" fill="#F2F2F2"/>
<path d="M191.508 127.413C197.816 127.413 202.93 122.304 202.93 116.003C202.93 109.701 197.816 104.593 191.508 104.593C185.2 104.593 180.086 109.701 180.086 116.003C180.086 122.304 185.2 127.413 191.508 127.413Z" fill="#F2F2F2"/>
<path d="M119.644 154.512C125.952 154.512 131.066 149.403 131.066 143.102C131.066 136.8 125.952 131.692 119.644 131.692C113.336 131.692 108.222 136.8 108.222 143.102C108.222 149.403 113.336 154.512 119.644 154.512Z" fill="#F2F2F2"/>
<path d="M195.791 196.824C202.1 196.824 207.213 191.716 207.213 185.414C207.213 179.113 202.1 174.004 195.791 174.004C189.483 174.004 184.369 179.113 184.369 185.414C184.369 191.716 189.483 196.824 195.791 196.824Z" fill="#F2F2F2"/>
<path d="M277.65 220.595C283.958 220.595 289.072 215.487 289.072 209.185C289.072 202.884 283.958 197.775 277.65 197.775C271.341 197.775 266.228 202.884 266.228 209.185C266.228 215.487 271.341 220.595 277.65 220.595Z" fill="#F2F2F2"/>
<path d="M373.31 215.366C379.618 215.366 384.732 210.257 384.732 203.956C384.732 197.654 379.618 192.546 373.31 192.546C367.002 192.546 361.888 197.654 361.888 203.956C361.888 210.257 367.002 215.366 373.31 215.366Z" fill="#F2F2F2"/>
<path d="M202.964 32.3303C168.749 32.5717 140.735 60.3468 140.249 94.5231C140.244 94.8387 140.242 97.0574 140.242 99.9592C140.242 104.214 141.934 108.294 144.946 111.303C147.958 114.312 152.042 116.002 156.302 116.003C158.413 116.002 160.504 115.586 162.454 114.778C164.404 113.971 166.176 112.787 167.668 111.294C169.161 109.802 170.344 108.031 171.15 106.082C171.957 104.133 172.371 102.044 172.369 99.9346C172.368 97.9606 172.367 96.5944 172.367 96.5105C172.366 91.2286 173.741 86.0374 176.357 81.4475C178.974 76.8576 182.741 73.0272 187.289 70.333C191.837 67.6388 197.009 66.1736 202.296 66.0816C207.582 65.9897 212.802 67.274 217.441 69.8084C222.08 72.3428 225.979 76.0398 228.754 80.5359C231.528 85.032 233.084 90.1723 233.267 95.451C233.45 100.73 232.254 105.965 229.797 110.642C227.341 115.319 223.707 119.277 219.255 122.126L219.26 122.133C219.26 122.133 196.403 136.832 189.434 156.998L189.44 156.999C188.214 161.13 187.593 165.417 187.596 169.725C187.596 171.497 187.701 186.993 187.902 199.571C187.973 203.911 189.748 208.049 192.846 211.093C195.943 214.137 200.114 215.842 204.46 215.841C206.643 215.841 208.804 215.41 210.82 214.572C212.836 213.734 214.666 212.507 216.205 210.96C217.744 209.413 218.962 207.577 219.788 205.558C220.614 203.539 221.032 201.377 221.019 199.196C220.949 187.677 220.911 174.265 220.911 173.291C220.911 160.909 232.869 148.572 242.691 140.526C254.002 131.262 262.141 118.636 265.41 104.395C266.133 101.463 266.532 98.4599 266.599 95.4408C266.599 87.1144 264.95 78.8704 261.746 71.1836C258.543 63.4968 253.848 56.5192 247.933 50.6528C242.018 44.7865 234.999 40.1474 227.282 37.0027C219.564 33.8581 211.299 32.2701 202.964 32.3303Z" fill="#692BE2"/>
<path d="M401.434 283H0.566988C0.416981 283 0.27327 282.94 0.167352 282.834C0.0614351 282.728 0.00195312 282.584 0.00195312 282.434C0.00195312 282.284 0.0614351 282.14 0.167352 282.034C0.27327 281.928 0.416981 281.868 0.566988 281.868H401.434C401.584 281.868 401.728 281.928 401.834 282.034C401.941 282.14 402 282.284 402 282.434C402 282.584 401.941 282.728 401.834 282.834C401.728 282.94 401.584 283 401.434 283Z" fill="#3F3D56"/>
<path d="M299.093 129.788C306.978 129.788 313.371 123.402 313.371 115.525C313.371 107.648 306.978 101.263 299.093 101.263C291.208 101.263 284.815 107.648 284.815 115.525C284.815 123.402 291.208 129.788 299.093 129.788Z" fill="#2F2E41"/>
<path d="M272.709 276.757H266.875L264.099 254.275H272.71L272.709 276.757Z" fill="#A0616A"/>
<path d="M262.707 275.091H273.96V282.168H255.622C255.622 281.239 255.805 280.319 256.161 279.46C256.517 278.601 257.039 277.821 257.697 277.164C258.355 276.507 259.136 275.985 259.996 275.63C260.855 275.274 261.777 275.091 262.707 275.091Z" fill="#2F2E41"/>
<path d="M317.922 276.757H312.088L309.312 254.275H317.923L317.922 276.757Z" fill="#A0616A"/>
<path d="M307.92 275.091H319.173V282.168H300.835C300.835 281.239 301.018 280.319 301.374 279.46C301.73 278.601 302.252 277.821 302.91 277.164C303.568 276.507 304.349 275.985 305.209 275.63C306.068 275.274 306.99 275.091 307.92 275.091Z" fill="#2F2E41"/>
<path d="M296.924 129.871C303.379 129.871 308.613 124.643 308.613 118.195C308.613 111.746 303.379 106.518 296.924 106.518C290.468 106.518 285.234 111.746 285.234 118.195C285.234 124.643 290.468 129.871 296.924 129.871Z" fill="#A0616A"/>
<path d="M303.89 167.541L309.12 155.537C310.391 152.721 310.755 149.58 310.162 146.549C309.57 143.517 308.05 140.744 305.813 138.612C305.353 138.158 304.865 137.734 304.351 137.343C301.771 135.326 298.59 134.227 295.314 134.219C293.111 134.228 290.936 134.711 288.936 135.636C288.765 135.712 288.599 135.793 288.427 135.873C288.099 136.03 287.775 136.202 287.461 136.377C285.412 137.553 283.669 139.192 282.371 141.164C281.073 143.136 280.257 145.386 279.989 147.73L277.681 167.052C277.1 168.568 256.388 223.337 263.632 265.15C263.709 265.597 263.927 266.007 264.254 266.321C264.581 266.635 265 266.836 265.45 266.895L272.793 267.893C273.329 267.966 273.874 267.834 274.316 267.523C274.758 267.211 275.066 266.744 275.178 266.215L287.499 207.543C287.576 207.179 287.773 206.85 288.058 206.611C288.344 206.371 288.702 206.234 289.074 206.222C289.447 206.209 289.813 206.322 290.114 206.541C290.415 206.761 290.634 207.075 290.735 207.434L308.145 269.134C308.269 269.582 308.537 269.978 308.907 270.259C309.278 270.541 309.73 270.693 310.196 270.693C310.335 270.693 310.473 270.68 310.61 270.655L319.581 268.93C320.103 268.832 320.569 268.544 320.888 268.121C321.208 267.698 321.358 267.171 321.309 266.643C319.99 251.957 312.985 178.395 303.89 167.541Z" fill="#2F2E41"/>
<path d="M251.496 127.912C251.415 128.606 251.487 129.31 251.708 129.973C251.928 130.636 252.292 131.243 252.772 131.751C253.253 132.259 253.839 132.655 254.49 132.912C255.141 133.169 255.84 133.281 256.538 133.238L263.072 148.924L268.015 141.605L261.052 127.832C260.903 126.665 260.331 125.592 259.444 124.818C258.557 124.044 257.416 123.622 256.239 123.632C255.061 123.642 253.927 124.083 253.053 124.872C252.179 125.661 251.625 126.742 251.496 127.912Z" fill="#A0616A"/>
<path d="M296.275 183.335C296.97 183.252 297.638 183.018 298.232 182.649C298.826 182.28 299.333 181.786 299.715 181.201C300.097 180.615 300.347 179.953 300.445 179.261C300.544 178.569 300.489 177.864 300.285 177.196L314.033 167.194L305.756 164.098L293.97 174.07C292.869 174.487 291.958 175.292 291.411 176.335C290.864 177.377 290.719 178.583 291.003 179.725C291.287 180.867 291.981 181.865 292.953 182.531C293.924 183.196 295.106 183.482 296.275 183.335Z" fill="#A0616A"/>
<path d="M273.864 159.381C273.337 159.38 272.812 159.328 272.295 159.226C271.044 158.988 269.871 158.447 268.88 157.65C267.888 156.852 267.108 155.824 266.609 154.654L257.454 143.504C257.261 143.268 257.12 142.994 257.041 142.7C256.963 142.405 256.948 142.097 256.998 141.796C257.048 141.496 257.162 141.209 257.332 140.956C257.502 140.703 257.724 140.489 257.983 140.328L264.496 136.301C264.736 136.152 265.004 136.053 265.283 136.008C265.562 135.963 265.848 135.974 266.123 136.039C266.398 136.105 266.657 136.225 266.885 136.391C267.114 136.558 267.307 136.768 267.454 137.009L273.906 147.627L286.261 138.506C287.245 137.99 288.382 137.846 289.463 138.099C290.545 138.351 291.499 138.984 292.152 139.882C292.805 140.779 293.113 141.882 293.02 142.987C292.927 144.093 292.438 145.128 291.644 145.904L279.312 157.141C277.863 158.576 275.905 159.381 273.864 159.381Z" fill="#2F2E41"/>
<path d="M307.25 176.15C307.233 176.15 307.217 176.15 307.2 176.149C306.9 176.142 306.604 176.072 306.333 175.943C306.061 175.815 305.82 175.631 305.624 175.403L299.834 168.655C299.637 168.425 299.491 168.156 299.405 167.866C299.32 167.575 299.297 167.27 299.338 166.97C299.38 166.671 299.484 166.383 299.645 166.126C299.806 165.87 300.02 165.651 300.272 165.483L311.114 158.262L301.292 146.466C300.721 145.514 300.511 144.389 300.701 143.296C300.892 142.203 301.47 141.215 302.329 140.512C303.189 139.809 304.273 139.439 305.384 139.469C306.494 139.498 307.556 139.926 308.377 140.674L320.315 152.328C321.255 153.185 321.972 154.258 322.405 155.453C322.838 156.648 322.975 157.931 322.803 159.19C322.631 160.45 322.156 161.649 321.418 162.684C320.68 163.72 319.701 164.561 318.566 165.136L308.809 175.478C308.608 175.69 308.367 175.859 308.099 175.975C307.831 176.09 307.542 176.15 307.25 176.15Z" fill="#2F2E41"/>
<path d="M293.951 151.286C293.858 151.286 293.766 151.28 293.673 151.268C293.27 151.219 292.889 151.056 292.576 150.797C292.263 150.539 292.031 150.196 291.908 149.809L287.556 136.483C287.447 136.147 287.464 135.782 287.604 135.456C287.743 135.131 287.996 134.867 288.315 134.713L288.456 134.646C288.584 134.585 288.711 134.525 288.841 134.468C290.869 133.528 293.078 133.037 295.314 133.03C298.218 133.036 301.056 133.888 303.482 135.482C303.807 135.698 304.034 136.033 304.115 136.415C304.195 136.797 304.122 137.195 303.911 137.524L295.749 150.297C295.557 150.6 295.292 150.85 294.978 151.023C294.663 151.196 294.31 151.286 293.951 151.286Z" fill="#E6E6E6"/>
<path d="M310.35 109.158C312.93 109.158 315.022 107.069 315.022 104.491C315.022 101.913 312.93 99.824 310.35 99.824C307.769 99.824 305.678 101.913 305.678 104.491C305.678 107.069 307.769 109.158 310.35 109.158Z" fill="#2F2E41"/>
<path d="M294.334 99.3611C291.052 99.3611 287.905 100.663 285.584 102.982C283.264 105.3 281.96 108.444 281.96 111.722V116.952H288.399L291.478 111.722L292.402 116.952H311.943L306.708 111.722C306.708 108.444 305.404 105.3 303.084 102.982C300.763 100.663 297.616 99.3611 294.334 99.3611Z" fill="#2F2E41"/>
<path d="M312.751 101.294C313.268 99.6804 314.337 98.3002 315.772 97.3963C317.206 96.4924 318.914 96.1226 320.595 96.352C323.572 96.8492 325.926 99.2399 327.329 101.91C328.731 104.58 329.379 107.569 330.322 110.433C331.265 113.298 332.602 116.178 334.983 118.033C337.363 119.887 341.016 120.39 343.354 118.482C343.087 120.47 342.201 122.324 340.821 123.782C339.442 125.239 337.638 126.226 335.666 126.604C333.694 126.981 331.653 126.73 329.832 125.885C328.011 125.04 326.502 123.645 325.518 121.896C324.284 119.704 323.966 117.134 323.6 114.646C323.234 112.157 322.759 109.583 321.286 107.543C319.813 105.503 317.056 104.171 314.716 105.1L312.751 101.294Z" fill="#2F2E41"/>
<path d="M160.836 108.414C156.577 108.414 152.492 106.723 149.481 103.715C146.469 100.706 144.777 96.6255 144.777 92.3707C144.777 89.4689 144.779 87.2502 144.783 86.9347C144.918 76.9952 147.424 67.2313 152.093 58.4528C144.423 68.9419 140.205 81.553 140.024 94.5414C140.019 94.8569 140.017 97.0756 140.018 99.9775C140.018 104.232 141.71 108.313 144.722 111.321C147.733 114.33 151.818 116.021 156.077 116.021C159.577 116.02 162.981 114.877 165.772 112.767C168.562 110.657 170.587 107.695 171.539 104.33C168.598 106.964 164.786 108.419 160.836 108.414Z" fill="#3F3D56"/>
<path d="M204.053 66.1355C208.977 66.3704 213.77 67.7956 218.021 70.2887C222.273 72.7818 225.854 76.2684 228.46 80.449C231.065 84.6296 232.615 89.3793 232.978 94.2904C233.341 99.2014 232.505 104.127 230.542 108.644C233.381 105.314 235.468 101.411 236.66 97.2019C237.852 92.9929 238.121 88.5765 237.45 84.254C236.778 79.9314 235.182 75.8044 232.769 72.1541C230.356 68.5038 227.184 65.4162 223.468 63.1017C219.752 60.7872 215.581 59.3003 211.237 58.7423C206.894 58.1843 202.482 58.5684 198.301 59.8684C194.12 61.1683 190.269 63.3536 187.01 66.2752C183.751 69.1968 181.161 72.786 179.416 76.7981C182.431 73.255 186.221 70.4509 190.492 68.6023C194.764 66.7536 199.403 65.9096 204.053 66.1355Z" fill="#3F3D56"/>
<path d="M208.994 208.253C204.649 208.254 200.478 206.548 197.381 203.505C194.283 200.461 192.508 196.323 192.437 191.983C192.236 179.405 192.131 163.908 192.131 162.137C192.129 157.828 192.749 153.542 193.975 149.411L193.969 149.409C194.693 147.336 195.567 145.318 196.584 143.371C193.461 147.528 190.976 152.127 189.21 157.016L189.216 157.018C187.99 161.149 187.369 165.435 187.372 169.744C187.372 171.515 187.476 187.012 187.678 199.589C187.748 203.929 189.524 208.067 192.621 211.111C195.719 214.155 199.89 215.86 204.235 215.859C207.818 215.859 211.304 214.698 214.17 212.551C217.036 210.404 219.128 207.386 220.132 203.951C217.088 206.724 213.114 208.258 208.994 208.253Z" fill="#3F3D56"/>
<path d="M60.2241 276.973L66.0584 276.973L68.8345 254.491L60.2227 254.492L60.2241 276.973Z" fill="#FFB8B8"/>
<path d="M77.3115 282.385L58.9739 282.386L58.9736 275.308L70.2262 275.308C72.1053 275.307 73.9074 276.053 75.2361 277.38C76.5649 278.708 77.3114 280.508 77.3115 282.385Z" fill="#2F2E41"/>
<path d="M39.2827 276.973L45.117 276.973L47.8931 254.491L39.2812 254.492L39.2827 276.973Z" fill="#FFB8B8"/>
<path d="M56.3701 282.385L38.0325 282.386L38.0322 275.308L49.2848 275.308C51.1639 275.307 52.966 276.053 54.2947 277.38C55.6235 278.708 56.37 280.508 56.3701 282.385Z" fill="#2F2E41"/>
<path d="M44.3818 270.059L38.6826 269.76C38.3888 269.744 38.1009 269.671 37.8357 269.543C37.5704 269.416 37.3332 269.237 37.1376 269.018C36.942 268.798 36.792 268.542 36.6962 268.264C36.6005 267.986 36.5609 267.692 36.5798 267.398L43.3915 192.06L74.76 200.516L77.7822 199.692L68.3312 266.386C68.2507 266.888 68.0013 267.347 67.6242 267.688C67.2471 268.029 66.7648 268.232 66.2571 268.262L60.1134 268.548C59.8063 268.565 59.4989 268.518 59.2107 268.41C58.9225 268.303 58.6599 268.136 58.4393 267.922C58.2187 267.708 58.045 267.45 57.9292 267.165C57.8134 266.881 57.758 266.575 57.7664 266.268L58.8796 226.239C58.8848 226.054 58.8205 225.874 58.6992 225.734C58.5779 225.594 58.4085 225.504 58.2244 225.483C58.0403 225.461 57.8548 225.509 57.7045 225.618C57.5541 225.726 57.4499 225.887 57.4123 226.068L46.6769 268.291C46.5756 268.792 46.3034 269.243 45.9069 269.566C45.5104 269.889 45.014 270.064 44.5024 270.062C44.4624 270.062 44.4223 270.061 44.3818 270.059Z" fill="#2F2E41"/>
<path d="M61.2712 130.418C67.7269 130.418 72.9603 125.19 72.9603 118.741C72.9603 112.292 67.7269 107.064 61.2712 107.064C54.8154 107.064 49.582 112.292 49.582 118.741C49.582 125.19 54.8154 130.418 61.2712 130.418Z" fill="#FFB8B8"/>
<path d="M41.8096 153.046L43.0948 180.748L43.5594 190.826C43.578 191.265 43.7271 191.688 43.9877 192.042C44.2483 192.396 44.6087 192.663 45.0226 192.811L75.1656 203.719C75.4091 203.81 75.6671 203.855 75.9269 203.852C76.2238 203.854 76.5179 203.796 76.7917 203.681C77.0656 203.566 77.3135 203.398 77.5206 203.185C77.7278 202.973 77.89 202.721 77.9975 202.444C78.105 202.168 78.1557 201.873 78.1464 201.576L76.9106 151.768C76.8295 147.681 75.3236 143.751 72.6526 140.655C69.9817 137.558 66.313 135.49 62.279 134.806C61.9874 134.761 61.6908 134.717 61.3942 134.678C58.8928 134.367 56.3537 134.608 53.9557 135.384C51.5576 136.159 49.3588 137.45 47.5139 139.166C45.6036 140.921 44.1025 143.074 43.1168 145.473C42.1311 147.871 41.6848 150.457 41.8096 153.046Z" fill="#CCCCCC"/>
<path d="M89.5651 198.192C88.8521 197.971 88.2008 197.586 87.663 197.069C87.1252 196.552 86.7158 195.916 86.4676 195.213C86.2194 194.51 86.1392 193.758 86.2333 193.019C86.3275 192.279 86.5934 191.571 87.0099 190.953L76.7881 177.375L85.6089 176.829L93.9635 189.807C94.8579 190.498 95.4802 191.481 95.7214 192.584C95.9626 193.688 95.8072 194.84 95.2825 195.841C94.7577 196.841 93.8972 197.625 92.8517 198.055C91.8063 198.485 90.6427 198.533 89.5651 198.192Z" fill="#FFB8B8"/>
<path d="M82.3781 188.496C82.1073 188.386 81.8609 188.223 81.6533 188.018C81.4458 187.812 81.281 187.568 81.1687 187.298L65.7687 150.646C65.4665 149.928 65.3089 149.158 65.3048 148.38C65.3007 147.601 65.4502 146.83 65.7447 146.109C66.0393 145.388 66.4732 144.732 67.0216 144.179C67.57 143.626 68.2221 143.186 68.9407 142.885C69.6593 142.584 70.4303 142.427 71.2096 142.423C71.989 142.42 72.7614 142.57 73.4827 142.864C74.2039 143.159 74.86 143.593 75.4133 144.141C75.9667 144.69 76.4064 145.341 76.7075 146.06L92.1075 182.712C92.3351 183.256 92.3376 183.867 92.1145 184.412C91.8914 184.958 91.4609 185.392 90.9174 185.621L84.0806 188.487C83.8115 188.601 83.5224 188.66 83.2301 188.662C82.9379 188.663 82.6483 188.607 82.3781 188.496Z" fill="#CCCCCC"/>
<path d="M57.5135 187.203L72.3048 158.911C72.5901 158.367 73.0797 157.958 73.6663 157.774C74.253 157.59 74.8887 157.646 75.434 157.93L96.9036 169.131C97.4483 169.416 97.8575 169.905 98.0416 170.491C98.2258 171.077 98.1696 171.712 97.8856 172.257L83.0943 200.548C82.8091 201.093 82.3194 201.501 81.7328 201.685C81.1461 201.869 80.5104 201.813 79.9651 201.529L58.4956 190.329C57.9509 190.044 57.5416 189.554 57.3575 188.968C57.1734 188.382 57.2295 187.747 57.5135 187.203Z" fill="#3F3D56"/>
<path d="M67.4328 174.277C67.1698 173.579 66.7472 172.952 66.1987 172.446C65.6501 171.941 64.9908 171.57 64.2734 171.364C63.556 171.158 62.8003 171.122 62.0667 171.26C61.333 171.398 60.6417 171.705 60.0479 172.156L45.8757 162.765L45.8516 171.593L59.3134 179.158C60.0565 180.009 61.0759 180.572 62.1927 180.747C63.3096 180.923 64.4526 180.7 65.4212 180.117C66.3899 179.535 67.1224 178.63 67.4902 177.562C67.858 176.495 67.8377 175.331 67.4328 174.277Z" fill="#FFB8B8"/>
<path d="M49.514 176.262L37.9316 167.097C36.6786 166.677 35.5464 165.959 34.6322 165.006C33.718 164.052 33.0491 162.891 32.683 161.622C32.3168 160.354 32.2643 159.015 32.53 157.722C32.7956 156.428 33.3715 155.219 34.2082 154.197L44.7247 140.429C45.4556 139.536 46.4833 138.937 47.6202 138.739C48.7571 138.542 49.9272 138.76 50.9165 139.353C51.9059 139.947 52.6484 140.876 53.0084 141.971C53.3684 143.066 53.3218 144.254 52.8771 145.318L44.5562 158.915L56.7845 164.709C57.0689 164.844 57.3214 165.037 57.5253 165.276C57.7293 165.516 57.8801 165.796 57.9677 166.098C58.0553 166.4 58.0778 166.717 58.0337 167.028C57.9896 167.339 57.8798 167.638 57.7117 167.904L52.7755 175.707C52.6087 175.97 52.3883 176.196 52.1287 176.369C51.869 176.542 51.576 176.658 51.2684 176.711C51.2562 176.713 51.2439 176.715 51.2316 176.717C50.9294 176.762 50.6211 176.745 50.3256 176.667C50.0302 176.589 49.754 176.451 49.514 176.262Z" fill="#CCCCCC"/>
<path d="M52.4383 126.56C52.3881 126.413 52.3722 126.257 52.3918 126.103C52.4113 125.95 52.4658 125.802 52.5511 125.673C52.6364 125.544 52.7502 125.436 52.8837 125.357C53.0173 125.278 53.1671 125.231 53.3217 125.219C53.6383 125.237 53.9482 125.318 54.2325 125.458C54.5168 125.598 54.7698 125.794 54.9761 126.035C55.3991 126.522 55.8916 126.944 56.4377 127.288C57.0032 127.573 57.7701 127.533 58.0924 126.99C58.3952 126.48 58.1877 125.797 58.0045 125.205C57.5382 123.699 57.2772 122.136 57.2288 120.56C57.176 118.801 57.4244 116.965 58.3994 115.593C59.6577 113.822 61.9076 113.15 64.0369 113.199C66.1662 113.248 68.2609 113.904 70.3701 114.319C71.0982 114.462 71.9541 114.536 72.4411 113.972C72.9589 113.373 72.7687 112.402 72.5485 111.593C71.9769 109.493 71.3705 107.322 70.0426 105.626C68.6068 103.863 66.5557 102.71 64.3026 102.397C62.1394 102.13 59.9436 102.379 57.8956 103.124C54.5588 104.175 51.6227 106.218 49.4799 108.98C47.271 111.918 46.3165 115.611 46.8251 119.25C47.3221 122.419 49.0033 125.283 51.53 127.263L52.4383 126.56Z" fill="#2F2E41"/>
<path d="M200.486 277.066C197.376 275.713 194.624 273.656 192.446 271.059C190.268 268.461 188.724 265.393 187.936 262.097C187.148 258.801 187.138 255.368 187.906 252.067C188.674 248.766 190.2 245.689 192.362 243.079C189.855 244.907 187.766 247.248 186.233 249.945C184.701 252.642 183.76 255.633 183.473 258.721C183.187 261.809 183.561 264.923 184.571 267.855C185.581 270.787 187.204 273.472 189.332 275.73C191.46 277.988 194.044 279.768 196.913 280.952C199.782 282.136 202.871 282.696 205.974 282.597C209.076 282.497 212.122 281.74 214.91 280.374C217.697 279.009 220.162 277.067 222.14 274.677C219.054 276.93 215.431 278.336 211.632 278.755C207.833 279.175 203.99 278.592 200.486 277.066Z" fill="#3F3D56"/>
</g>
<defs>
<clipPath id="clip0_637_20776">
<rect width="402" height="283" fill="white"/>
</clipPath>
</defs>
</svg>
