<?xml version="1.0" encoding="UTF-8" standalone="no"?>
<svg
   xmlns:dc="http://purl.org/dc/elements/1.1/"
   xmlns:cc="http://creativecommons.org/ns#"
   xmlns:rdf="http://www.w3.org/1999/02/22-rdf-syntax-ns#"
   xmlns:svg="http://www.w3.org/2000/svg"
   xmlns="http://www.w3.org/2000/svg"
   xmlns:sodipodi="http://sodipodi.sourceforge.net/DTD/sodipodi-0.dtd"
   xmlns:inkscape="http://www.inkscape.org/namespaces/inkscape"
   width="524.67004"
   height="455.59899"
   viewBox="0 0 524.67004 455.59899"
   version="1.1"
   id="svg70"
   sodipodi:docname="wedding.svg"
   inkscape:version="1.0.2-2 (e86c870879, 2021-01-15)">
  <metadata
     id="metadata76">
    <rdf:RDF>
      <cc:Work
         rdf:about="">
        <dc:format>image/svg+xml</dc:format>
        <dc:type
           rdf:resource="http://purl.org/dc/dcmitype/StillImage" />
      </cc:Work>
    </rdf:RDF>
  </metadata>
  <defs
     id="defs74" />
  <sodipodi:namedview
     pagecolor="#ffffff"
     bordercolor="#666666"
     borderopacity="1"
     objecttolerance="10"
     gridtolerance="10"
     guidetolerance="10"
     inkscape:pageopacity="0"
     inkscape:pageshadow="2"
     inkscape:window-width="2400"
     inkscape:window-height="1261"
     id="namedview72"
     showgrid="false"
     inkscape:zoom="2.3162077"
     inkscape:cx="262.33502"
     inkscape:cy="210.52989"
     inkscape:window-x="-9"
     inkscape:window-y="-9"
     inkscape:window-maximized="1"
     inkscape:current-layer="svg70" />
  <g
     id="g7">
    <path
       id="uuid-c35e0a51-e7e9-4b68-ade6-2a226cad2c46-145"
       d="M238.83843,47.86831c-4.27191-4.43026-5.44876-10.22554-2.62887-12.94375,2.81989-2.71821,8.56783-1.32987,12.84067,3.10254,1.73111,1.74715,3.01865,3.88347,3.75486,6.23022l17.86322,18.99977-7.53142,7.04481-18.20768-18.45237c-2.31908-.8216-4.40762-2.18676-6.09078-3.98121Z"
       fill="#ffb6b6" />
    <polygon
       points="258.15678 50.42647 254.76504 45.51934 244.42819 53.38319 250.04976 56.1935 258.15678 50.42647"
       fill="#692be2"
       id="polygon3" />
    <polygon
       points="357.30765 113.55097 352.06866 85.94083 300.33704 81.04728 257.25765 47.84949 246.91026 55.15092 282.5902 105.46859 357.30765 113.55097"
       fill="#2f2e41"
       id="polygon5" />
  </g>
  <path
     d="M323.26312,68.6633c-3.35637-1.48363-7.96682,1.58918-10.29724,6.86354-.96063,2.09543-1.40534,4.3905-1.29689,6.69313l-2.73322,6.38385-.04711,.00586-12.54929,21.74983-17.95985-26.24009c-2.74717-4.01376-7.77808-5.78516-12.43396-4.3781h-.00004c-7.62508,2.30439-10.44811,11.62719-5.38227,17.7745l29.66184,35.99401c3.11135,3.77551,9.09331,3.03,11.1828-1.39369l17.49426-41.06699,2.14139-4.68548c1.775-1.46955,3.17225-3.34286,4.07488-5.46316,2.33199-5.27592,1.50107-10.75355-1.85531-12.23722Z"
     fill="#ffb6b6"
     id="path9" />
  <path
     d="m 524.67004,434.48305 c 0,0.66003 -0.53003,1.19 -1.19006,1.19 H 1.19 c -0.65997,0 -1.19,-0.52997 -1.19,-1.19 0,-0.66003 0.53003,-1.19 1.19,-1.19 h 522.28998 c 0.66003,0 1.19006,0.53003 1.19006,1.19 z"
     fill="#3f3d56"
     id="path11"
     style="display:none" />
  <polygon
     points="324.48688 70.70287 325.00977 49.21838 337.51029 42.33889 347.79636 58.33301 324.48688 70.70287"
     fill="#ffb6b6"
     id="polygon13" />
  <polygon
     points="348.77293 56.05435 320.79592 68.74974 319.47588 85.3514 353.33024 67.12213 348.77293 56.05435"
     fill="#692be2"
     id="polygon15" />
  <path
     d="M363.28521,130.21796l-.01001,.04004c-2.02997,12.12994-4.73999,20.84998-4.73999,20.84998l.84003,19.38,1.76996,40.52002-11.00995,.96997-17.35004,1.52002-1.67999,.14996-11.5,1.01001-17.71002,1.54999-5.20996-75.51996s6.45001-16.56,12.60999-32.33002c4.16003-10.64001,8.19-20.92999,10-25.52002,.17999-.45001,.34003-.83997,.47003-1.16998,2.10999-5.29999,12.62-11.88,20.75995-16.32001,5.53003-3.02997,9.98004-5.08002,9.98004-5.08002l4.44,8.17999,.33997,.63c6.66003,8.12,9.39001,19.42004,10.02002,31.04004,.04999,.83997,.08002,1.67999,.10999,2.51996,.29004,9.66003-.77002,19.40002-2.13,27.58002Z"
     fill="#2f2e41"
     id="path17" />
  <g
     id="g35">
    <g
       id="g23">
      <polygon
         points="333.35129 427.63709 321.71153 427.52753 316.59267 382.57916 333.77187 382.7404 333.35129 427.63709"
         fill="#ffb6b6"
         id="polygon19" />
      <path
         d="M293.47442,427.00155h0c-.36811,.60701-.57769,2.57528-.58431,3.28511h0c-.02033,2.18182,1.73189,3.96706,3.91378,3.98739l36.04702,.3358c1.48843,.01387,2.70635-1.1815,2.72021-2.67l.01398-1.50075s1.82523-4.49393-1.7943-10.08762c0,0-4.60351,4.31066-11.35822-2.57108l-1.9767-3.66115-14.65339,10.50865-8.07644,.91784c-1.76696,.20078-3.3294-.06473-4.25151,1.45582h-.00014Z"
         fill="#2f2e41"
         id="path21" />
    </g>
    <g
       id="g29">
      <polygon
         points="392.93432 413.30336 382.36442 418.17913 358.52576 379.73076 374.12576 372.53416 392.93432 413.30336"
         fill="#ffb6b6"
         id="polygon25" />
      <path
         d="M356.61148,429.77211h0c-.07336,.7061,.5784,2.57512,.8758,3.21968h0c.91413,1.98119,3.26125,2.84627,5.24251,1.9321l32.73231-15.10287c1.35156-.62362,1.94174-2.22484,1.31809-3.57647l-.62878-1.36275s-.27058-4.8429-5.9336-8.35297c0,0-2.31949,5.86464-11.36743,2.53007l-3.35184-2.46507-8.75621,15.76332-6.90933,4.28165c-1.51163,.93672-3.03766,1.36446-3.22141,3.13324l-.00013,.00006Z"
         fill="#2f2e41"
         id="path27" />
    </g>
    <path
       d="M304.94927,207.59899l1.19493,101.04069,9.91819,105.49351h18.3896l14.97159-137.95305s21.63969-33.36119,9.01654-63.11577v-14.7566l-53.49086,9.29122Z"
       fill="#2f2e41"
       id="path31" />
    <polygon
       points="335.89878 303.22976 387.29305 394.2968 372.86659 408.72326 332.29217 350.11576 335.89878 303.22976"
       fill="#2f2e41"
       id="polygon33" />
  </g>
  <path
     d="M281.38973,75.91124l-20.83345-7.1615s-17.57823,20.83345-8.46359,46.22422l2.60418,30.59913s-35.8075,29.94809-38.41168,68.35977c-2.60418,38.41168-87.24008,139.97476-87.24008,139.97476,0,0-31.25018,1.95314-33.20332,13.67195-1.95314,11.71882,11.06777,26.69286,8.46359,39.71377-2.60418,13.02091,18.6445,50.78154,63.68454,48.17736,45.04004-2.60418,184.36376-27.99495,186.31689-57.292,1.95314-29.29704-69.66186-247.39725-69.66186-247.39725l10.41673-29.29704s7.1615-11.71882-3.25523-24.08868c-10.41673-12.36986-10.41673-21.4845-10.41673-21.4845Z"
     fill="#e6e6e6"
     id="path37"
     style="fill:#e3bf2b;fill-opacity:1" />
  <polygon
     points="259.55251 70.05584 260.07952 68.74974 263.8115 56.37988 282.69182 62.89033 281.38973 75.91124 259.55251 70.05584"
     fill="#ffb6b6"
     id="polygon39" />
  <circle
     cx="330.33285"
     cy="33.81"
     r="22.89883"
     fill="#ffb6b6"
     id="circle41" />
  <path
     d="M326.98955,43.62736l-9.63259-9.35726,2.66553-7.2774s-19.03721,7.06752-14.31377-7.81878c4.72344-14.8863,28.82418-13.38351,33.81612-9.75143,4.99193,3.63208,21.1665,12.04129,17.01559,23.83225-4.15091,11.79096-12.02339,22.40105-12.02339,22.40105l-6.22649-3.61418s-.1969-13.58015-3.27434-12.91812-8.02665,4.50387-8.02665,4.50387Z"
     fill="#2f2e41"
     id="path43" />
  <g
     id="g51">
    <circle
       cx="281.93356"
       cy="44.51744"
       r="21.13153"
       fill="#ffb6b6"
       id="circle45" />
    <path
       d="M280.24707,16.10757c.61146,.35694,1.4305-.1831,1.62657-.86343s-.03233-1.40266-.25881-2.07347l-1.14015-3.37699c-.80862-2.39503-1.66685-4.87376-3.41813-6.69669-2.64328-2.75142-6.84406-3.45137-10.6256-2.94428-4.85625,.6512-9.6477,3.28081-11.90571,7.62921-2.25801,4.3484-1.29669,10.41598,2.78339,13.12894-5.81501,6.66497-7.84203,14.09285-7.52197,22.93218,.32006,8.83933,9.95276,16.97439,16.23457,23.20136,1.40284-.85038,2.67818-4.83564,1.90675-6.2834-.77143-1.44776,.33386-3.12503-.62154-4.45857-.9554-1.33354-1.75471,.78985-.78882-.53611,.60949-.83671-1.76933-2.76161-.86336-3.2624,4.382-2.42222,5.83942-7.8842,8.59161-12.06685,3.31964-5.04506,9.00121-8.46162,15.01381-9.02843,3.31213-.31224,6.81047,.25328,9.5253,2.17615,2.71483,1.92287,4.47239,5.359,3.84285,8.62571,1.63041-1.65546,2.442-4.08154,2.13588-6.38482-.30611-2.30328-1.72319-4.43316-3.7294-5.60531,1.21986-4.034,.17484-8.67429-2.65651-11.79594-2.83135-3.12165-14.31685-2.58997-18.4504-1.76841"
       fill="#2f2e41"
       id="path47" />
    <path
       d="M279.60515,31.53106c-5.47477,.591-9.4277,5.33337-12.76563,9.71294-1.9239,2.52428-3.93917,5.31193-3.89087,8.48543,.04883,3.20849,2.19404,5.96047,3.21926,9.00114,1.67576,4.97008,.04254,10.88332-3.94653,14.28878,3.94165,.74798,8.20268-2.20747,8.88313-6.16134,.79213-4.60278-2.697-9.04517-2.28377-13.6973,.36406-4.09858,3.59392-7.25293,6.33978-10.31743,2.74586-3.0645,5.3247-7.13102,4.06147-11.04703"
       fill="#2f2e41"
       id="path49" />
  </g>
  <path
     d="m 486.50391,326.7971 c -3.16093,0.3401 -6.60921,0.85055 -10.27718,1.59744 -15.55246,3.16687 -15.87526,13.72736 -15.73896,16.14847 l -0.10566,-0.0659 c -1.56382,2.50859 -2.54325,5.0473 -3.13519,7.44337 L 456.53471,319.554 c 0.46052,-0.9602 0.87954,-2.04896 1.22889,-3.16494 1.16419,3.58504 3.07256,6.97195 4.7176,6.74748 2.13909,-0.2919 3.07167,-6.58596 2.67265,-11.05881 2.72016,3.50314 7.2981,7.24972 9.02511,6.09446 1.38001,-0.92313 0.56173,-4.72359 -0.94492,-8.17871 3.13929,1.89132 6.61613,3.13439 7.69503,1.93342 1.47227,-1.63885 -2.05557,-7.23082 -5.30905,-10.35235 4.35496,0.40613 9.89372,-0.28771 10.25684,-2.26977 0.2992,-1.6331 -2.99722,-3.69384 -6.5255,-5.02014 3.5439,-0.93441 6.85789,-2.56256 6.74798,-4.17324 -0.13057,-1.91338 -5.05068,-3.19543 -9.29526,-3.39051 3.20154,-2.50471 6.14321,-5.96711 5.24362,-7.53303 -0.82704,-1.43962 -4.67439,-0.88198 -8.22406,0.38596 2.10064,-3.00326 3.5775,-6.38742 2.45277,-7.54556 -1.40106,-1.44266 -6.37359,1.04738 -9.76711,3.79978 0.66062,-4.28797 0.32665,-9.70052 -1.59659,-10.19022 -1.60895,-0.40967 -3.88929,2.73886 -5.4527,6.16866 -0.69097,-3.59931 -2.08979,-7.01645 -3.7042,-7.01645 -2.29982,0 -4.16418,6.93399 -4.16418,11.45149 0,0.25536 0.007,0.49574 0.0184,0.72541 -0.23083,-0.26761 -0.49538,-0.54719 -0.79707,-0.84018 -3.24076,-3.14728 -9.51391,-6.64064 -11.11616,-4.99082 -1.12474,1.15814 0.35212,4.5423 2.45277,7.54556 -3.54967,-1.26794 -7.39702,-1.82559 -8.22406,-0.38596 -1.11127,1.93439 3.63883,6.76323 7.4999,9.10499 -0.2321,-0.028 -0.47595,-0.0515 -0.73547,-0.0692 -4.50701,-0.30752 -11.55183,1.08049 -11.7084,3.37497 -0.10991,1.61067 3.20409,3.23883 6.74798,4.17324 -3.52829,1.3263 -6.8247,3.38704 -6.5255,5.02014 0.36312,1.98206 5.90188,2.6759 10.25684,2.26977 -3.25348,3.12154 -6.78132,8.7135 -5.30905,10.35235 1.0789,1.20097 4.55573,-0.0421 7.69503,-1.93342 -1.50665,3.45512 -2.32492,7.25558 -0.94492,8.17871 1.82373,1.21996 6.82541,-3.02601 9.4625,-6.67949 -0.2687,4.46965 0.80077,10.61004 2.9228,10.85236 0.88742,0.10134 1.82777,-0.84507 2.67643,-2.3023 l -2.40356,34.79012 c -0.56184,4.05159 3.03199,6.69542 3.35318,8.36434 l 0.51842,23.5593 c -0.58508,-1.67794 -1.37316,-3.3952 -2.43548,-5.09933 l -0.10566,0.0659 c 0.13628,-2.42136 -0.18675,-12.98155 -15.73896,-16.14836 -3.66797,-0.74689 -7.11625,-1.25734 -10.27718,-1.59744 -3.73116,-0.40145 -5.1866,4.70611 -1.81595,6.35581 4.88144,2.38917 9.4733,5.39935 11.86668,8.96403 6.11901,9.11359 14.5737,3.84542 15.77578,3.0275 1.34266,2.23509 2.22306,4.48687 2.77913,6.62945 l 0.27531,12.51144 c -0.0674,0.2959 -0.11414,0.46159 -0.11777,0.47403 l 0.12902,0.0378 0.66628,30.27884 6.18057,-0.0496 -2.21068,-30.94947 c 0.37149,-1.66957 1.51435,-7.35722 0,-13.26406 l -2.21068,-24.31744 v 0 c -0.006,-0.0188 0.12548,0.63842 0,0 l -2.8837,-9.55504 c 0.41933,-2.95604 1.3925,-6.28098 3.36894,-9.57097 1.20206,0.81791 9.65677,6.08611 15.77579,-3.0275 2.39338,-3.56469 6.98524,-6.57486 11.86668,-8.96403 3.37065,-1.64971 1.91521,-6.75726 -1.81595,-6.35581 z m -28.23342,71.6385 -0.11651,-5.2952 c 0.23499,2.00214 0.2231,3.80933 0.11651,5.2952 z"
     fill="#f2f2f2"
     id="path53"
     style="display:none" />
  <path
     d="m 77.50391,326.7971 c -3.16093,0.3401 -6.60921,0.85055 -10.27718,1.59744 -15.55246,3.16687 -15.87526,13.72736 -15.73896,16.14847 l -0.10566,-0.0659 c -1.56382,2.50859 -2.54325,5.0473 -3.13519,7.44337 L 47.53471,319.554 c 0.46052,-0.9602 0.87954,-2.04896 1.22889,-3.16494 1.16419,3.58504 3.07256,6.97195 4.7176,6.74748 2.13909,-0.2919 3.07167,-6.58596 2.67265,-11.05881 2.72016,3.50314 7.2981,7.24972 9.02511,6.09446 1.38001,-0.92313 0.56173,-4.72359 -0.94492,-8.17871 3.13929,1.89132 6.61613,3.13439 7.69503,1.93342 1.47227,-1.63885 -2.05557,-7.23082 -5.30905,-10.35235 4.35496,0.40613 9.89372,-0.28771 10.25684,-2.26977 0.2992,-1.6331 -2.99722,-3.69384 -6.5255,-5.02014 3.5439,-0.93441 6.85789,-2.56256 6.74798,-4.17324 -0.13057,-1.91338 -5.05068,-3.19543 -9.29526,-3.39051 3.20154,-2.50471 6.14321,-5.96711 5.24362,-7.53303 -0.82704,-1.43962 -4.67439,-0.88198 -8.22406,0.38596 2.10064,-3.00326 3.5775,-6.38742 2.45277,-7.54556 -1.40106,-1.44266 -6.37359,1.04738 -9.76711,3.79978 0.66062,-4.28797 0.32665,-9.70052 -1.59659,-10.19022 -1.60895,-0.40967 -3.88929,2.73886 -5.4527,6.16866 -0.69097,-3.59931 -2.08979,-7.01645 -3.7042,-7.01645 -2.29982,0 -4.16418,6.93399 -4.16418,11.45149 0,0.25536 0.0068,0.49574 0.01843,0.72541 -0.23083,-0.26761 -0.49538,-0.54719 -0.79707,-0.84018 -3.24076,-3.14728 -9.51391,-6.64064 -11.11616,-4.99082 -1.12474,1.15814 0.35212,4.5423 2.45277,7.54556 -3.54967,-1.26794 -7.39702,-1.82559 -8.22406,-0.38596 -1.11127,1.93439 3.63883,6.76323 7.4999,9.10499 -0.2321,-0.028 -0.47595,-0.0515 -0.73547,-0.0692 -4.50701,-0.30752 -11.55183,1.08049 -11.7084,3.37497 -0.10991,1.61067 3.20409,3.23883 6.74798,4.17324 -3.52829,1.3263 -6.8247,3.38704 -6.5255,5.02014 0.36312,1.98206 5.90188,2.6759 10.25684,2.26977 -3.25348,3.12154 -6.78132,8.7135 -5.30905,10.35235 1.0789,1.20097 4.55573,-0.0421 7.69503,-1.93342 -1.50665,3.45512 -2.32492,7.25558 -0.94492,8.17871 1.82373,1.21996 6.82541,-3.02601 9.4625,-6.67949 -0.2687,4.46965 0.80077,10.61004 2.9228,10.85236 0.88742,0.10134 1.82777,-0.84507 2.67643,-2.3023 l -2.40356,34.79012 c -0.56184,4.05159 3.03199,6.69542 3.35318,8.36434 l 0.51842,23.5593 c -0.58508,-1.67794 -1.37316,-3.3952 -2.43548,-5.09933 l -0.10566,0.0659 c 0.13628,-2.42136 -0.18675,-12.98155 -15.73896,-16.14836 -3.66797,-0.74689 -7.11625,-1.25734 -10.27718,-1.59744 -3.73116,-0.40145 -5.1866,4.70611 -1.81595,6.35581 4.88144,2.38917 9.4733,5.39935 11.86668,8.96403 6.11901,9.11359 14.5737,3.84542 15.77578,3.0275 1.34266,2.23509 2.22306,4.48687 2.77913,6.62945 l 0.27531,12.51144 c -0.06744,0.2959 -0.11414,0.46159 -0.11777,0.47403 l 0.12902,0.0378 0.66628,30.27884 6.18057,-0.0496 -2.21068,-30.94947 c 0.37149,-1.66957 1.51435,-7.35722 0,-13.26406 l -2.21068,-24.31744 v 0 c -0.0055,-0.0188 0.12548,0.63842 0,0 l -2.8837,-9.55504 c 0.41933,-2.95604 1.3925,-6.28098 3.36894,-9.57097 1.20206,0.81791 9.65677,6.08611 15.77579,-3.0275 2.39338,-3.56469 6.98524,-6.57486 11.86668,-8.96403 3.37065,-1.64971 1.91521,-6.75726 -1.81595,-6.35581 z m -28.23342,71.6385 -0.11651,-5.2952 c 0.23499,2.00214 0.2231,3.80933 0.11651,5.2952 z"
     fill="#f2f2f2"
     id="path55"
     style="display:none" />
  <path
     d="M254.59464,146.95021l30.61385-.09889c1.93007-.00623,1.9338-3.00625,0-3l-30.61385,.09889c-1.93007,.00623-1.9338,3.00625,0,3h0Z"
     fill="#692be2"
     id="path57" />
  <path
     d="M338.13119,207.58411c-1.72567-2.14449-3.94-3.84449-6.45757-4.95758l-1.66933-1.97024,.08341-.08105-32.45896-53.56467-17.59219-52.31125c-2.03548-6.05261-8.67939-9.21617-14.66116-6.98109-5.98395,2.23593-8.92497,8.98491-6.48877,14.89012l20.55643,49.82679,41.79034,56.74113,1.01054,1.25282c.62246,2.68045,1.87782,5.1728,3.66095,7.26863,4.39125,5.30689,10.68603,7.34281,14.06224,4.54932,3.37627-2.7935,2.55441-9.35846-1.83594-14.66292Z"
     fill="#ffb6b6"
     id="path59" />
  <g
     id="g68">
    <g
       id="g64">
      <path
         id="uuid-5494c572-d1ef-490f-a18f-c726509d3762-146"
         d="M350.04519,218.93979c-1.38748,7.70964-6.49012,13.24303-11.39644,12.35922-4.90632-.88381-7.7576-7.84937-6.3686-15.56157,.5126-3.08832,1.75733-6.00898,3.63007-8.51761l6.29135-32.59181,12.88201,2.52076-5.46981,32.53928c.88061,3.00521,1.02855,6.17764,.43141,9.25172Z"
         fill="#ffb6b6" />
      <polygon
         points="338.2872 197.10011 335.7517 204.25696 351.56964 209.06202 350.27975 201.16709 338.2872 197.10011"
         fill="#692be2"
         id="polygon62" />
    </g>
    <path
       d="M365.41522,102.63794l-.75,13.30005-1.38,14.27997-.01001,.04004-3.89996,40.22998-2.95001,30.5-.56,5.70996-4.85999-1.08997-.67999-.15002-4.95001-1.10999-8.54004-1.92999-.39996-.08002-1.71002-.39001,4.35004-71.42999,.67999-30.70996,.59998-26.94,.16998-7.52002c5.53003-3.02997,9.98004-5.08002,9.98004-5.08002l4.44,8.17999,.33997,.63c6.66003,8.12,9.39001,19.42004,10.02002,31.04004,.04999,.83997,.08002,1.67999,.10999,2.51996Z"
       fill="#2f2e41"
       id="path66" />
  </g>
</svg>
